<svg width="22" height="22" viewBox="0 0 22 22" fill="red" xmlns="http://www.w3.org/2000/svg">
<path d="M14.6667 1.83333H7.33333C4.80333 1.83333 2.75 3.88666 2.75 6.41666V15.5833C2.75 18.1133 4.80333 20.1667 7.33333 20.1667H14.6667C17.1967 20.1667 19.25 18.1133 19.25 15.5833V6.41666C19.25 3.88666 17.1967 1.83333 14.6667 1.83333ZM8.12167 17.0775C7.9475 17.2517 7.71833 17.3433 7.48 17.3433C7.2325 17.3433 7.00333 17.2517 6.82917 17.0775C6.655 16.9033 6.55417 16.6742 6.55417 16.4267C6.55417 16.1883 6.655 15.95 6.82917 15.7758C6.91167 15.6933 7.0125 15.6292 7.1225 15.5833C7.35167 15.4917 7.59917 15.4917 7.82833 15.5833C7.88333 15.6017 7.93833 15.6292 7.98417 15.6658C8.03917 15.6933 8.085 15.7392 8.12167 15.7758C8.29583 15.95 8.39667 16.1883 8.39667 16.4267C8.39667 16.6742 8.29583 16.9033 8.12167 17.0775ZM6.55417 12.76C6.55417 12.6408 6.58167 12.5217 6.6275 12.4117C6.67333 12.2925 6.7375 12.2008 6.82917 12.1092C7.04 11.8983 7.36083 11.7975 7.65417 11.8617C7.70917 11.8708 7.77333 11.8892 7.82833 11.9167C7.88333 11.935 7.93833 11.9625 7.98417 11.9992C8.03917 12.0267 8.085 12.0725 8.12167 12.1092C8.20417 12.2008 8.2775 12.2925 8.32333 12.4117C8.36917 12.5217 8.3875 12.6408 8.3875 12.76C8.3875 13.0075 8.29583 13.2367 8.12167 13.4108C7.9475 13.585 7.71833 13.6767 7.48 13.6767C7.35167 13.6767 7.2325 13.6492 7.1225 13.6033C7.0125 13.5575 6.91167 13.4933 6.82917 13.4108C6.655 13.2367 6.55417 13.0075 6.55417 12.76ZM11.7883 17.0775C11.7058 17.16 11.605 17.2242 11.495 17.27C11.385 17.3158 11.2658 17.3433 11.1375 17.3433C10.8992 17.3433 10.67 17.2517 10.4958 17.0775C10.3217 16.9033 10.2208 16.6742 10.2208 16.4267C10.2208 16.3625 10.23 16.3075 10.2392 16.2433C10.2575 16.1883 10.2758 16.1333 10.2942 16.0783C10.3217 16.0233 10.3492 15.9683 10.3767 15.9133C10.4133 15.8675 10.45 15.8217 10.4958 15.7758C10.5783 15.6933 10.6792 15.6292 10.7892 15.5833C11.1283 15.4458 11.5317 15.5192 11.7883 15.7758C11.9625 15.95 12.0542 16.1883 12.0542 16.4267C12.0542 16.6742 11.9625 16.9033 11.7883 17.0775ZM11.7883 13.4108C11.6142 13.585 11.385 13.6767 11.1375 13.6767C10.8992 13.6767 10.67 13.585 10.4958 13.4108C10.3217 13.2367 10.2208 13.0075 10.2208 12.76C10.2208 12.5217 10.3217 12.2833 10.4958 12.1092C10.835 11.77 11.4492 11.77 11.7883 12.1092C11.8708 12.2008 11.9442 12.2925 11.99 12.4117C12.0358 12.5217 12.0542 12.6408 12.0542 12.76C12.0542 13.0075 11.9625 13.2367 11.7883 13.4108ZM8.25 9.58833C7.30583 9.58833 6.52667 8.81833 6.52667 7.86499V6.94833C6.52667 6.00416 7.29667 5.22499 8.25 5.22499H13.75C14.6942 5.22499 15.4733 5.99499 15.4733 6.94833V7.86499C15.4733 8.80916 14.7033 9.58833 13.75 9.58833H8.25ZM15.455 17.0775C15.2808 17.2517 15.0517 17.3433 14.8042 17.3433C14.685 17.3433 14.5658 17.3158 14.4558 17.27C14.3458 17.2242 14.245 17.16 14.1625 17.0775C13.9883 16.9033 13.8967 16.6742 13.8967 16.4267C13.8967 16.1883 13.9883 15.95 14.1625 15.7758C14.41 15.5192 14.8225 15.4458 15.1617 15.5833C15.2717 15.6292 15.3725 15.6933 15.455 15.7758C15.6292 15.95 15.7208 16.1883 15.7208 16.4267C15.7208 16.6742 15.6292 16.9033 15.455 17.0775ZM15.6567 13.1083C15.6108 13.2183 15.5467 13.3192 15.455 13.4108C15.2808 13.585 15.0517 13.6767 14.8042 13.6767C14.5658 13.6767 14.3367 13.585 14.1625 13.4108C13.9883 13.2367 13.8875 13.0075 13.8875 12.76C13.8875 12.5217 13.9883 12.2833 14.1625 12.1092C14.5017 11.77 15.1158 11.77 15.455 12.1092C15.6292 12.2833 15.73 12.5217 15.73 12.76C15.73 12.8792 15.7025 12.9983 15.6567 13.1083Z" fill="#002A5C"/>
</svg>
