<svg width="164" height="40" viewBox="0 0 164 40" fill="none" xmlns="http://www.w3.org/2000/svg">
<path d="M46.2278 27.9869V10.2837H52.6608C54.589 10.2837 56.2014 10.6826 57.498 11.4805C58.7946 12.2618 59.767 13.3257 60.4153 14.6721C61.0636 16.0019 61.3877 17.4813 61.3877 19.1104C61.3877 20.9056 61.0303 22.4681 60.3155 23.798C59.6008 25.1278 58.5868 26.1584 57.2736 26.8898C55.977 27.6212 54.4394 27.9869 52.6608 27.9869H46.2278ZM57.9219 19.1104C57.9219 17.9634 57.7141 16.9577 57.2985 16.0933C56.883 15.2123 56.2845 14.5308 55.5033 14.0487C54.722 13.5501 53.7745 13.3007 52.6608 13.3007H49.6687V24.9699H52.6608C53.7911 24.9699 54.7469 24.7205 55.5282 24.2218C56.3095 23.7065 56.8996 23.0084 57.2985 22.1274C57.7141 21.2298 57.9219 20.2241 57.9219 19.1104ZM61.6727 27.9869L67.7566 14.0487H70.2251L76.284 27.9869H73.0925L71.6962 24.7205H66.2855L64.8892 27.9869H61.6727ZM69.0033 17.7141L66.9587 22.1024H70.9731L69.0033 17.7141ZM88.2314 16.6918H83.3193V27.9869H80.3023V16.6918H75.3654V14.0487H88.2314V16.6918ZM87.2885 27.9869L93.3724 14.0487H95.8409L101.9 27.9869H98.7083L97.312 24.7205H91.9013L90.505 27.9869H87.2885ZM94.6191 17.7141L92.5745 22.1024H96.5889L94.6191 17.7141ZM114.386 14.9214C114.27 14.8051 114.054 14.6472 113.738 14.4477C113.439 14.2482 113.065 14.0571 112.616 13.8742C112.184 13.6914 111.71 13.5334 111.195 13.4005C110.679 13.2509 110.156 13.1761 109.624 13.1761C108.693 13.1761 107.986 13.3506 107.504 13.6997C107.039 14.0487 106.806 14.5391 106.806 15.1708C106.806 15.6528 106.956 16.0352 107.255 16.3177C107.554 16.6003 108.003 16.8414 108.601 17.0408C109.2 17.2403 109.948 17.4564 110.846 17.6891C112.009 17.9717 113.015 18.3208 113.863 18.7363C114.727 19.1353 115.384 19.6672 115.832 20.3321C116.298 20.9804 116.531 21.8448 116.531 22.9253C116.531 23.8728 116.356 24.6873 116.007 25.3688C115.658 26.0337 115.176 26.5739 114.561 26.9895C113.946 27.4051 113.248 27.7126 112.466 27.9121C111.685 28.0949 110.854 28.1863 109.973 28.1863C109.092 28.1863 108.211 28.0949 107.33 27.9121C106.449 27.7292 105.601 27.4716 104.787 27.1391C103.972 26.79 103.224 26.3745 102.543 25.8924L104.063 22.9253C104.213 23.0749 104.479 23.2743 104.861 23.5237C105.244 23.7564 105.709 23.9974 106.258 24.2468C106.806 24.4795 107.405 24.679 108.053 24.8452C108.701 25.0114 109.358 25.0945 110.023 25.0945C110.954 25.0945 111.66 24.9366 112.142 24.6208C112.624 24.305 112.865 23.8561 112.865 23.2743C112.865 22.7424 112.674 22.3268 112.292 22.0276C111.909 21.7284 111.377 21.4708 110.696 21.2547C110.014 21.022 109.208 20.7726 108.277 20.5067C107.164 20.1908 106.233 19.8418 105.485 19.4594C104.737 19.0605 104.18 18.5618 103.814 17.9634C103.448 17.365 103.266 16.617 103.266 15.7193C103.266 14.5059 103.548 13.4919 104.113 12.6774C104.695 11.8462 105.476 11.2229 106.457 10.8073C107.438 10.3751 108.527 10.159 109.724 10.159C110.555 10.159 111.336 10.2505 112.067 10.4333C112.815 10.6162 113.513 10.8572 114.162 11.1564C114.81 11.4556 115.392 11.7797 115.907 12.1288L114.386 14.9214ZM121.998 19.634V27.9869H118.981V14.0487H121.325L129.354 22.6261V14.0487H132.371V27.9869H129.927L121.998 19.634ZM134.137 27.9869L140.221 14.0487H142.69L148.749 27.9869H145.557L144.161 24.7205H138.75L137.354 27.9869H134.137ZM141.468 17.7141L139.423 22.1024H143.438L141.468 17.7141ZM150.538 27.9869V14.0487H157.096C158.043 14.0487 158.891 14.2815 159.639 14.7469C160.387 15.2123 160.969 15.8024 161.385 16.5172C161.817 17.2154 162.033 17.9551 162.033 18.7363C162.033 19.5342 161.825 20.2906 161.409 21.0053C161.011 21.7201 160.454 22.3019 159.739 22.7507C159.024 23.1995 158.185 23.4239 157.221 23.4239H153.555V27.9869H150.538ZM153.555 20.7809H157.021C157.387 20.7809 157.719 20.7061 158.018 20.5565C158.318 20.3903 158.55 20.1576 158.717 19.8584C158.883 19.5425 158.966 19.1685 158.966 18.7363C158.966 18.2875 158.866 17.9135 158.667 17.6143C158.467 17.3151 158.21 17.0907 157.894 16.9411C157.595 16.7749 157.262 16.6918 156.896 16.6918H153.555V20.7809Z" fill="#69C9C9"/>
<path d="M6.61018 9.81661C4.52188 12.5791 3.28864 16.0157 3.28864 19.7319C3.28864 28.8086 10.6552 36.1752 19.7319 36.1752C28.8086 36.1752 36.1752 28.8086 36.1752 19.7319C36.1752 10.6552 28.8086 3.28864 19.7319 3.28864" stroke="#69C9C9" stroke-width="2.46649" stroke-linecap="round" stroke-linejoin="round"/>
<path d="M8.22162 19.7319C8.22162 26.0955 13.3684 31.2422 19.7319 31.2422C26.0955 31.2422 31.2422 26.0955 31.2422 19.7319C31.2422 13.3684 26.0955 8.22162 19.7319 8.22162" stroke="#69C9C9" stroke-width="2.46649" stroke-linecap="round" stroke-linejoin="round"/>
<path d="M19.7319 26.3092C23.3659 26.3092 26.3092 23.3659 26.3092 19.7319C26.3092 16.0979 23.3659 13.1546 19.7319 13.1546" stroke="#69C9C9" stroke-width="2.46649" stroke-linecap="round" stroke-linejoin="round"/>
</svg>
