<svg width="22" height="22" viewBox="0 0 22 22" fill="none" xmlns="http://www.w3.org/2000/svg">
<path d="M17.8151 3.69829C17.9363 3.88888 17.7286 4.11091 17.5083 4.06084C17.0775 3.93251 16.6008 3.86834 16.115 3.86834H13.1105C12.9533 3.86834 12.8052 3.7944 12.7108 3.66871L11.6691 2.28251C11.54 2.09958 11.6621 1.83334 11.886 1.83334H14.41C15.8409 1.83334 17.1014 2.57651 17.8151 3.69829Z" fill="white"/>
<path d="M18.4616 5.99501C18.0675 5.71084 17.6183 5.50001 17.1325 5.38084C16.8025 5.28918 16.4633 5.24334 16.115 5.24334H12.705C12.1733 5.24334 12.1366 5.19751 11.8525 4.82168L10.5691 3.11668C9.97331 2.31918 9.50581 1.83334 8.01165 1.83334H5.88498C3.64831 1.83334 1.83331 3.64834 1.83331 5.88501V16.115C1.83331 18.3517 3.64831 20.1667 5.88498 20.1667H16.115C18.3516 20.1667 20.1666 18.3517 20.1666 16.115V9.29501C20.1666 7.92918 19.4975 6.72834 18.4616 5.99501ZM13.1908 14.9783H8.79998C8.44248 14.9783 8.16748 14.6942 8.16748 14.3367C8.16748 13.9883 8.44248 13.695 8.79998 13.695H13.1908C13.5483 13.695 13.8325 13.9883 13.8325 14.3367C13.8325 14.6942 13.5483 14.9783 13.1908 14.9783Z" fill="white"/>
</svg>
