<?xml version="1.0" encoding="utf-8"?>
<!-- Generator: Adobe Illustrator 25.0.0, SVG Export Plug-In . SVG Version: 6.00 Build 0)  -->
<svg version="1.1" id="Layer_1" xmlns="http://www.w3.org/2000/svg" xmlns:xlink="http://www.w3.org/1999/xlink" x="0px" y="0px"
	 viewBox="0 0 22 22" style="enable-background:new 0 0 22 22;" xml:space="preserve">
<style type="text/css">
	.st0{fill:#69C9C9;}
</style>
<path class="st0" d="M14.7,1.8H7.3c-2.5,0-4.6,2.1-4.6,4.6v9.2c0,2.5,2.1,4.6,4.6,4.6h7.3c2.5,0,4.6-2.1,4.6-4.6V6.4
	C19.2,3.9,17.2,1.8,14.7,1.8z M8.1,17.1c-0.2,0.2-0.4,0.3-0.6,0.3c-0.2,0-0.5-0.1-0.7-0.3c-0.2-0.2-0.3-0.4-0.3-0.7
	c0-0.2,0.1-0.5,0.3-0.7c0.1-0.1,0.2-0.1,0.3-0.2c0.2-0.1,0.5-0.1,0.7,0c0.1,0,0.1,0,0.2,0.1c0.1,0,0.1,0.1,0.1,0.1
	c0.2,0.2,0.3,0.4,0.3,0.7C8.4,16.7,8.3,16.9,8.1,17.1z M6.6,12.8c0-0.1,0-0.2,0.1-0.3c0-0.1,0.1-0.2,0.2-0.3
	c0.2-0.2,0.5-0.3,0.8-0.2c0.1,0,0.1,0,0.2,0.1c0.1,0,0.1,0,0.2,0.1c0.1,0,0.1,0.1,0.1,0.1c0.1,0.1,0.2,0.2,0.2,0.3
	c0,0.1,0.1,0.2,0.1,0.3c0,0.2-0.1,0.5-0.3,0.7c-0.2,0.2-0.4,0.3-0.6,0.3c-0.1,0-0.2,0-0.4-0.1c-0.1,0-0.2-0.1-0.3-0.2
	C6.7,13.2,6.6,13,6.6,12.8z M11.8,17.1c-0.1,0.1-0.2,0.1-0.3,0.2c-0.1,0-0.2,0.1-0.4,0.1c-0.2,0-0.5-0.1-0.6-0.3
	c-0.2-0.2-0.3-0.4-0.3-0.7c0-0.1,0-0.1,0-0.2c0-0.1,0-0.1,0.1-0.2c0-0.1,0.1-0.1,0.1-0.2c0,0,0.1-0.1,0.1-0.1
	c0.1-0.1,0.2-0.1,0.3-0.2c0.3-0.1,0.7-0.1,1,0.2c0.2,0.2,0.3,0.4,0.3,0.7C12.1,16.7,12,16.9,11.8,17.1z M11.8,13.4
	c-0.2,0.2-0.4,0.3-0.7,0.3c-0.2,0-0.5-0.1-0.6-0.3c-0.2-0.2-0.3-0.4-0.3-0.7c0-0.2,0.1-0.5,0.3-0.7c0.3-0.3,1-0.3,1.3,0
	c0.1,0.1,0.2,0.2,0.2,0.3c0,0.1,0.1,0.2,0.1,0.3C12.1,13,12,13.2,11.8,13.4z M8.2,9.6c-0.9,0-1.7-0.8-1.7-1.7V6.9
	c0-0.9,0.8-1.7,1.7-1.7h5.5c0.9,0,1.7,0.8,1.7,1.7v0.9c0,0.9-0.8,1.7-1.7,1.7H8.2z M15.5,17.1c-0.2,0.2-0.4,0.3-0.7,0.3
	c-0.1,0-0.2,0-0.3-0.1c-0.1,0-0.2-0.1-0.3-0.2c-0.2-0.2-0.3-0.4-0.3-0.7c0-0.2,0.1-0.5,0.3-0.7c0.2-0.3,0.7-0.3,1-0.2
	c0.1,0,0.2,0.1,0.3,0.2c0.2,0.2,0.3,0.4,0.3,0.7C15.7,16.7,15.6,16.9,15.5,17.1z M15.7,13.1c0,0.1-0.1,0.2-0.2,0.3
	c-0.2,0.2-0.4,0.3-0.7,0.3c-0.2,0-0.5-0.1-0.6-0.3c-0.2-0.2-0.3-0.4-0.3-0.7c0-0.2,0.1-0.5,0.3-0.7c0.3-0.3,1-0.3,1.3,0
	c0.2,0.2,0.3,0.4,0.3,0.7C15.7,12.9,15.7,13,15.7,13.1z"/>
</svg>
