<?xml version="1.0" encoding="utf-8"?>
<!-- Generator: Adobe Illustrator 25.0.0, SVG Export Plug-In . SVG Version: 6.00 Build 0)  -->
<svg version="1.1" id="Layer_1" xmlns="http://www.w3.org/2000/svg" xmlns:xlink="http://www.w3.org/1999/xlink" x="0px" y="0px"
	 viewBox="0 0 22 22" style="enable-background:new 0 0 22 22;" xml:space="preserve">
<style type="text/css">
	.st0{fill:#69C9C9;}
</style>
<path class="st0" d="M14.7,1.8H7.3c-3.2,0-4.6,1.8-4.6,4.6v9.2c0,2.8,1.4,4.6,4.6,4.6h7.3c3.2,0,4.6-1.8,4.6-4.6V6.4
	C19.2,3.7,17.9,1.8,14.7,1.8z M7.3,11.2H11c0.4,0,0.7,0.3,0.7,0.7c0,0.4-0.3,0.7-0.7,0.7H7.3c-0.4,0-0.7-0.3-0.7-0.7
	C6.6,11.5,7,11.2,7.3,11.2z M14.7,16.3H7.3c-0.4,0-0.7-0.3-0.7-0.7c0-0.4,0.3-0.7,0.7-0.7h7.3c0.4,0,0.7,0.3,0.7,0.7
	C15.4,16,15,16.3,14.7,16.3z M17,8.5h-1.8c-1.4,0-2.5-1.1-2.5-2.5V4.1c0-0.4,0.3-0.7,0.7-0.7c0.4,0,0.7,0.3,0.7,0.7V6
	c0,0.6,0.5,1.1,1.1,1.1H17c0.4,0,0.7,0.3,0.7,0.7C17.6,8.2,17.3,8.5,17,8.5z"/>
</svg>
