<svg width="22" height="22" viewBox="0 0 22 22" fill="none" xmlns="http://www.w3.org/2000/svg">
<path d="M14.6667 1.83334H7.33333C4.125 1.83334 2.75 3.66668 2.75 6.41668V15.5833C2.75 18.3333 4.125 20.1667 7.33333 20.1667H14.6667C17.875 20.1667 19.25 18.3333 19.25 15.5833V6.41668C19.25 3.66668 17.875 1.83334 14.6667 1.83334ZM7.33333 11.2292H11C11.3758 11.2292 11.6875 11.5408 11.6875 11.9167C11.6875 12.2925 11.3758 12.6042 11 12.6042H7.33333C6.9575 12.6042 6.64583 12.2925 6.64583 11.9167C6.64583 11.5408 6.9575 11.2292 7.33333 11.2292ZM14.6667 16.2708H7.33333C6.9575 16.2708 6.64583 15.9592 6.64583 15.5833C6.64583 15.2075 6.9575 14.8958 7.33333 14.8958H14.6667C15.0425 14.8958 15.3542 15.2075 15.3542 15.5833C15.3542 15.9592 15.0425 16.2708 14.6667 16.2708ZM16.9583 8.47918H15.125C13.7317 8.47918 12.6042 7.35168 12.6042 5.95834V4.12501C12.6042 3.74918 12.9158 3.43751 13.2917 3.43751C13.6675 3.43751 13.9792 3.74918 13.9792 4.12501V5.95834C13.9792 6.59084 14.4925 7.10418 15.125 7.10418H16.9583C17.3342 7.10418 17.6458 7.41584 17.6458 7.79168C17.6458 8.16751 17.3342 8.47918 16.9583 8.47918Z" fill="white"/>
</svg>
