<svg width="22" height="22" viewBox="0 0 22 22" fill="none" xmlns="http://www.w3.org/2000/svg">
<path d="M6.63665 1.83334H4.89498C2.88748 1.83334 1.83331 2.88751 1.83331 4.88584V6.62751C1.83331 8.62584 2.88748 9.68001 4.88581 9.68001H6.62748C8.62581 9.68001 9.67998 8.62584 9.67998 6.62751V4.88584C9.68915 2.88751 8.63498 1.83334 6.63665 1.83334Z" fill="white"/>
<path d="M17.1142 1.83334H15.3725C13.3742 1.83334 12.32 2.88751 12.32 4.88584V6.62751C12.32 8.62584 13.3742 9.68001 15.3725 9.68001H17.1142C19.1125 9.68001 20.1667 8.62584 20.1667 6.62751V4.88584C20.1667 2.88751 19.1125 1.83334 17.1142 1.83334Z" fill="white"/>
<path d="M17.1142 12.3108H15.3725C13.3742 12.3108 12.32 13.365 12.32 15.3633V17.105C12.32 19.1033 13.3742 20.1575 15.3725 20.1575H17.1142C19.1125 20.1575 20.1667 19.1033 20.1667 17.105V15.3633C20.1667 13.365 19.1125 12.3108 17.1142 12.3108Z" fill="white"/>
<path d="M6.63665 12.3108H4.89498C2.88748 12.3108 1.83331 13.365 1.83331 15.3633V17.105C1.83331 19.1125 2.88748 20.1667 4.88581 20.1667H6.62748C8.62581 20.1667 9.67998 19.1125 9.67998 17.1142V15.3725C9.68915 13.365 8.63498 12.3108 6.63665 12.3108Z" fill="white"/>
</svg>
