<?xml version="1.0" encoding="utf-8"?>
<!-- Generator: Adobe Illustrator 25.0.0, SVG Export Plug-In . SVG Version: 6.00 Build 0)  -->
<svg version="1.1" id="Layer_1" xmlns="http://www.w3.org/2000/svg" xmlns:xlink="http://www.w3.org/1999/xlink" x="0px" y="0px"
	 viewBox="0 0 22 22" style="enable-background:new 0 0 22 22;" xml:space="preserve">
<style type="text/css">
	.st0{fill:#69C9C9;}
</style>
<path class="st0" d="M17.8,3.7c0.1,0.2-0.1,0.4-0.3,0.4c-0.4-0.1-0.9-0.2-1.4-0.2h-3c-0.2,0-0.3-0.1-0.4-0.2l-1-1.4
	c-0.1-0.2,0-0.4,0.2-0.4h2.5C15.8,1.8,17.1,2.6,17.8,3.7z"/>
<path class="st0" d="M18.5,6c-0.4-0.3-0.8-0.5-1.3-0.6c-0.3-0.1-0.7-0.1-1-0.1h-3.4c-0.5,0-0.6,0-0.9-0.4l-1.3-1.7
	C10,2.3,9.5,1.8,8,1.8H5.9c-2.2,0-4.1,1.8-4.1,4.1v10.2c0,2.2,1.8,4.1,4.1,4.1h10.2c2.2,0,4.1-1.8,4.1-4.1V9.3
	C20.2,7.9,19.5,6.7,18.5,6z M13.2,15H8.8c-0.4,0-0.6-0.3-0.6-0.6c0-0.3,0.3-0.6,0.6-0.6h4.4c0.4,0,0.6,0.3,0.6,0.6
	C13.8,14.7,13.5,15,13.2,15z"/>
</svg>
